<svg style="position: absolute; width: 0; height: 0; overflow: hidden;" version="1.1" xmlns="http://www.w3.org/2000/svg" xmlns:xlink="http://www.w3.org/1999/xlink">
<defs>
<symbol id="icon-cc-license" viewBox="0 0 110 32">
  <title>cc-license</title>
  <path class="icon-path" d="M16.144.95c-4.09 0-7.695 1.526-10.482 4.37C2.8 8.25 1.242 12.04 1.242 16c0 3.998 1.517 7.708 4.38 10.594 2.87 2.89 6.59 4.455 10.522 4.455 3.93 0 7.738-1.57 10.684-4.5 2.782-2.76 4.255-6.43 4.255-10.55 0-4.09-1.472-7.8-4.296-10.64C23.923 2.47 20.237.95 16.14.95zm.04 2.72c3.358 0 6.343 1.28 8.68 3.63 2.29 2.31 3.52 5.36 3.52 8.7 0 3.378-1.19 6.347-3.48 8.616-2.417 2.39-5.528 3.67-8.72 3.67-3.23 0-6.263-1.28-8.594-3.63C5.255 22.31 3.945 19.216 3.945 16c0-3.258 1.312-6.348 3.645-8.74 2.292-2.353 5.24-3.592 8.598-3.592zm-.193 9.83c-.84-1.55-2.28-2.17-3.95-2.17-2.43 0-4.37 1.737-4.37 4.67 0 2.986 1.82 4.668 4.46 4.668 1.69 0 3.13-.932 3.92-2.35l-1.85-.95c-.41 1.004-1.04 1.302-1.83 1.302-1.374 0-2.003-1.15-2.003-2.67 0-1.514.53-2.664 2.005-2.664.395 0 1.19.22 1.65 1.22L16 13.503zm8.62 0c-.84-1.55-2.28-2.17-3.95-2.17-2.43 0-4.37 1.737-4.37 4.67 0 2.986 1.82 4.668 4.46 4.668 1.69 0 3.13-.932 3.93-2.35l-1.854-.95c-.416 1.004-1.045 1.302-1.84 1.302-1.37 0-2.006-1.15-2.006-2.67 0-1.514.53-2.664 2-2.664.394 0 1.19.22 1.652 1.22l1.984-1.053zm34.41-1.223c0-.536-.43-.97-.96-.97h-6.11c-.53 0-.96.434-.96.97v6.15h1.71v7.278h4.63v-7.278h1.705v-6.15zm-1.92-3.88c0 1.16-.93 2.102-2.08 2.102s-2.09-.95-2.09-2.11.94-2.11 2.09-2.11 2.08.95 2.08 2.11zM54.99.973c-4.136 0-7.63 1.45-10.5 4.357-2.94 3.003-4.41 6.562-4.41 10.67s1.474 7.64 4.41 10.594c2.942 2.955 6.437 4.434 10.502 4.434 4.11 0 7.67-1.493 10.68-4.476 2.847-2.833 4.263-6.347 4.263-10.558 0-4.208-1.44-7.764-4.33-10.675C62.718 2.41 59.183.96 54.997.96zm.032 2.703c3.39 0 6.263 1.202 8.63 3.61 2.39 2.38 3.583 5.28 3.583 8.714 0 3.456-1.164 6.326-3.505 8.602-2.464 2.457-5.363 3.683-8.702 3.683-3.338 0-6.213-1.212-8.628-3.643-2.414-2.43-3.625-5.31-3.625-8.642S44 9.765 46.44 7.284c2.34-2.406 5.208-3.61 8.593-3.61zm38.8-2.703c4.187 0 7.72 1.45 10.61 4.357 2.89 2.907 4.33 6.463 4.33 10.67 0 4.21-1.42 7.726-4.26 10.56-3.01 2.978-6.57 4.47-10.68 4.47-4.05 0-7.56-1.474-10.49-4.433-2.94-2.95-4.403-6.488-4.403-10.593 0-4.105 1.46-7.664 4.4-10.667C86.19 2.43 89.69.977 93.82.977zM82.28 11.965c-.442 1.267-.664 2.61-.664 4.035 0 3.33 1.206 6.213 3.62 8.64 2.417 2.433 5.29 3.645 8.627 3.645 3.34 0 6.24-1.226 8.71-3.683.83-.8 1.5-1.675 2.04-2.63l-5.622-2.52c-.38 1.902-2.06 3.19-4.1 3.347v2.31h-1.72V22.8c-1.67-.026-3.29-.716-4.52-1.803l2.06-2.09c.99.934 1.975 1.36 3.33 1.36.873 0 1.845-.35 1.845-1.5 0-.402-.154-.69-.402-.9l-1.42-.638-1.77-.8-2.365-1.06-7.623-3.42zm11.583-8.29c-3.38 0-6.24 1.203-8.58 3.61-.64.643-1.19 1.324-1.66 2.03l5.707 2.554c.514-1.6 2.02-2.57 3.843-2.67V6.88h1.716v2.312c1.17.057 2.47.383 3.74 1.378l-1.96 2.03c-.726-.514-1.637-.88-2.55-.88-.74 0-1.788.23-1.788 1.17 0 .142.05.267.133.38l1.91.855 1.29.58 2.396 1.073 7.644 3.43c.253-1.01.38-2.08.38-3.218 0-3.43-1.196-6.337-3.59-8.717-2.364-2.404-5.24-3.606-8.63-3.606z"/>
</symbol>
<symbol id="icon-heart" viewBox="0 0 32 32">
  <title>heart</title>
  <path class="icon-path" d="M23.6 2c-3.363 0-6.258 2.736-7.599 5.594-1.342-2.858-4.237-5.594-7.601-5.594-4.637 0-8.4 3.764-8.4 8.401 0 9.433 9.516 11.906 16.001 21.232 6.13-9.268 15.999-12.1 15.999-21.232 0-4.637-3.763-8.401-8.4-8.401z"/>
</symbol>
<symbol id="icon-chevron-down" viewBox="0 0 32 32">
  <title>chevron down</title>
  <path class="icon-path" d="M.045 8.443c0-.215.082-.43.246-.594.33-.33.86-.33 1.19 0L16 22.37 30.52 7.85c.33-.33.86-.33 1.19 0s.327.86 0 1.186L16.593 24.152c-.328.326-.86.326-1.188 0L.29 9.036c-.163-.163-.245-.378-.245-.593z"/>
</symbol>
<symbol id="icon-quote" viewBox="0 0 32 32">
  <title>quote</title>
  <path d="M16 1.204c8.15 0 14.796 6.646 14.796 14.796S24.15 30.796 16 30.796 1.204 24.15 1.204 16 7.85 1.204 16 1.204m0-1.087C7.223.117.117 7.223.117 16S7.223 31.883 16 31.883 31.883 24.777 31.883 16 24.777.117 16 .117z"/>
  <path d="M16 1.956C8.226 1.956 1.956 8.226 1.956 16S8.226 30.044 16 30.044 30.044 23.774 30.044 16 23.774 1.956 16 1.956zm-3.887 13.92c.836 0 1.505.207 2.006.626.5.418.75 1.044.75 1.84 0 .584-.21 1.127-.67 1.63-.46.5-1.045.752-1.798.752-1.17 0-2.048-.377-2.55-1.17S9.1 17.756 9.1 16.502c0-.878.21-1.714.586-2.424.375-.752.835-1.38 1.42-1.965.543-.585 1.17-1.086 1.797-1.504.626-.42 1.17-.757 1.588-1.008l.754 1.212c-.627.376-1.17.67-1.546.96-.418.252-.794.628-1.21 1.046-.378.42-.67.837-.88 1.297-.21.46-.334 1.043-.418 1.754h.92zm7.65 0c.835 0 1.504.207 2.005.626.502.418.752 1.044.752 1.84 0 .584-.208 1.127-.668 1.63-.418.5-1.045.752-1.798.752-1.17 0-2.048-.377-2.55-1.17-.5-.795-.752-1.798-.752-3.052 0-.878.21-1.714.586-2.424.376-.752.836-1.38 1.42-1.965.544-.585 1.17-1.086 1.8-1.504.625-.42 1.17-.757 1.587-1.008l.752 1.212c-.627.376-1.17.67-1.547.96-.417.252-.793.628-1.212 1.046-.418.42-.71.878-.877 1.297-.163.416-.33 1.002-.414 1.754h.92z"/>
</symbol>
<symbol id="icon-github" viewBox="0 0 32 32">
  <title>github</title>
  <path class="icon-path" d="M27.779 14.169c0.112-0.708 0.186-1.528 0.186-2.423 0-3.839-1.826-5.181-2.199-5.815 0.522-2.907-0.075-4.212-0.373-4.66-1.044-0.373-3.616 0.969-5.032 1.864-2.311-0.671-7.157-0.596-8.946 0.186-3.355-2.385-5.144-2.050-5.144-2.050s-1.155 2.050-0.298 5.069c-1.118 1.417-1.938 2.386-1.938 5.032 0 0.634 0.037 1.23 0.112 1.789 1.006 5.032 4.958 7.194 8.871 7.567-0.596 0.447-1.305 1.305-1.379 2.274-0.745 0.485-2.199 0.634-3.355 0.261-1.603-0.522-2.236-3.69-4.66-3.243-0.522 0.112-0.41 0.447 0.037 0.745 0.745 0.485 1.417 1.081 1.976 2.348 0.41 0.969 1.267 2.721 3.988 2.721 1.081 0 1.826-0.112 1.826-0.112s0.037 2.498 0.037 3.466c0 1.118-1.491 1.417-1.491 1.976 0 0.224 0.485 0.224 0.895 0.224 0.783 0 2.423-0.671 2.423-1.826v-4.547c0-1.193 0.634-1.566 0.634-1.566s0.075 6.337-0.149 7.157c-0.261 1.006-0.745 0.857-0.745 1.305 0 0.671 1.976 0.149 2.647-1.305 0.522-1.118 0.298-7.343 0.298-7.343h0.522v4.138c-0.037 1.342-0.149 3.057 0.634 3.839 0.522 0.522 2.125 1.454 2.125 0.596 0-0.485-1.118-0.895-1.118-2.236v-6.15c0.671 0 0.82 2.013 0.82 2.013l0.261 3.728s-0.149 1.379 1.454 1.938c0.559 0.186 1.826 0.261 1.864-0.075 0.075-0.336-1.491-0.857-1.491-1.901 0-0.634 0.037-1.006 0.037-3.802s-0.373-3.839-1.677-4.66c3.728-0.373 7.641-2.087 8.35-6.523z"/>
</symbol>
<symbol id="icon-mail" viewBox="0 0 32 32">
  <title>mail</title>
  <path class="icon-path" d="M19.714 17.12c-.04-.082-.12-.12-.24-.042L16.8 18.635c-.32.2-.678.2-1 0l-2.315-1.318c-.08-.04-.16-.04-.24 0L4.34 25.543c-.04.04-.04.08-.04.2 0 .04.04.08.08.16.2.04.32.08.4.08h22.722c.04 0 .12-.04.198-.08 0-.12 0-.2-.04-.24l-7.946-8.545zM11.01 16.36c.04-.04.04-.08.04-.16s-.04-.16-.08-.16L4.06 12.09c-.08-.04-.16-.04-.24 0-.04 0-.08.04-.08.16v10.42c0 .082.04.162.16.2h.08c.04 0 .08 0 .08-.038l6.95-6.47zM28.14 11.888h-.2L21.35 15.8c-.04 0-.08.04-.08.16-.04.04 0 .08.04.16l6.59 7.108c.04.04.12.08.16.08h.08c.08-.08.16-.16.16-.2v-11.02c0-.08-.04-.16-.16-.2zM27.5 6.017h-23c-.24 0-.398.08-.6.2-.158.16-.24.36-.24.6V9.37c0 .12.042.2.16.2l12.14 6.908c.04 0 .12 0 .16-.04l11.7-6.828c.04-.04.12-.04.16-.04.04 0 .08 0 .158-.04.12 0 .2-.04.2-.2V6.857c0-.24-.08-.48-.24-.6-.2-.16-.4-.24-.598-.24z"/>
</symbol>
<symbol id="icon-rss" viewBox="0 0 32 32">
  <title>rss</title>
  <path class="icon-path" d="M 15.365 16.241 C 11.653 12.849 5.016 12.053 5.016 12.053 C 4.269 12.053 3.662 12.559 3.662 13.287 L 3.662 15.597 C 3.662 16.321 4.269 16.828 5.016 16.832 C 5.016 16.832 9.281 16.943 11.844 19.255 C 15.226 22.309 15.132 26.543 15.132 26.543 C 15.132 27.274 15.484 27.864 16.233 27.864 L 18.857 27.864 C 19.604 27.864 19.787 27.274 19.787 26.543 C 19.787 26.543 19.163 19.709 15.365 16.243 Z M 7.174 21.404 C 5.321 21.404 3.817 22.869 3.817 24.672 C 3.817 26.481 5.321 27.942 7.174 27.942 C 9.03 27.942 10.533 26.481 10.533 24.672 C 10.533 22.869 9.03 21.404 7.174 21.404 Z M 22.008 11.656 C 16.168 4.799 5.017 4.058 5.017 4.058 C 4.272 4.058 3.663 4.566 3.663 5.296 L 3.663 7.602 C 3.663 8.331 4.272 8.836 5.017 8.836 C 5.017 8.836 12.986 9.088 17.481 14.258 C 23.641 20.427 23.174 26.595 23.174 26.595 C 23.174 27.325 23.779 27.914 24.529 27.914 L 27.151 27.914 C 27.9 27.914 28.337 27.325 28.337 26.595 C 28.337 26.595 27.782 16.893 22.008 11.656 Z"/>
</symbol>
<symbol id="icon-circle">
  <circle cx="50%" cy="50%" r="50%"/>
</symbol>
<symbol id="icon-github-circle" viewBox="0 0 32 32">
  <title>github</title>
  <use xlink:href="#icon-circle" fill="#5f5f5f"/>
  <use xlink:href="#icon-github" height="19" y="7" fill="#fff"/>
</symbol>
<symbol id="icon-mail-circle" viewBox="0 0 32 32">
  <title>mail</title>
  <use xlink:href="#icon-circle" fill="#dd4b39"/>
  <use xlink:href="#icon-mail" width="22" x="5" fill="#fff"/>
</symbol>
<symbol id="icon-rss-circle" viewBox="0 0 32 32">
  <title>rss</title>
  <use xlink:href="#icon-circle" fill="#fc9a2a"/>
  <use xlink:href="#icon-rss" width="16" x="9" fill="#fff"/>
</symbol>
</defs>
</svg>
